<svg width="30" height="30" viewBox="0 0 30 30" fill="none" xmlns="http://www.w3.org/2000/svg">
<circle cx="15" cy="15" r="14.5" stroke="black"/>
<path d="M15.8352 6.875C16.7493 6.87744 17.2132 6.88231 17.6138 6.89369L17.7714 6.89937C17.9534 6.90587 18.133 6.914 18.3499 6.92375C19.2144 6.96437 19.8043 7.10088 20.3219 7.30156C20.8581 7.50794 21.3099 7.78744 21.7616 8.23837C22.1748 8.64454 22.4944 9.13585 22.6984 9.67812C22.8991 10.1957 23.0356 10.7856 23.0762 11.6509C23.086 11.867 23.0941 12.0466 23.1006 12.2294L23.1055 12.387C23.1177 12.7868 23.1225 13.2507 23.1242 14.1648L23.125 14.7709V15.8352C23.127 16.4279 23.1207 17.0205 23.1063 17.613L23.1014 17.7706C23.0949 17.9534 23.0868 18.133 23.077 18.3491C23.0364 19.2144 22.8983 19.8035 22.6984 20.3219C22.495 20.8644 22.1753 21.3559 21.7616 21.7616C21.3553 22.1746 20.864 22.4943 20.3219 22.6984C19.8043 22.8991 19.2144 23.0356 18.3499 23.0763C18.1571 23.0853 17.9643 23.0935 17.7714 23.1006L17.6138 23.1055C17.2132 23.1169 16.7493 23.1226 15.8352 23.1242L15.2291 23.125H14.1655C13.5726 23.127 12.9797 23.1208 12.387 23.1063L12.2294 23.1014C12.0365 23.0941 11.8436 23.0857 11.6509 23.0763C10.7864 23.0356 10.1965 22.8991 9.67811 22.6984C9.1359 22.4948 8.64478 22.1751 8.23917 21.7616C7.82564 21.3556 7.50566 20.8643 7.30154 20.3219C7.10086 19.8043 6.96436 19.2144 6.92373 18.3491C6.91468 18.1563 6.90655 17.9635 6.89936 17.7706L6.89529 17.613C6.88032 17.0205 6.87355 16.4279 6.87498 15.8352V14.1648C6.87271 13.5721 6.87867 12.9795 6.89286 12.387L6.89854 12.2294C6.90504 12.0466 6.91317 11.867 6.92292 11.6509C6.96354 10.7856 7.10004 10.1965 7.30073 9.67812C7.50476 9.1353 7.82538 8.64383 8.23998 8.23837C8.64549 7.8252 9.13628 7.50549 9.67811 7.30156C10.1965 7.10088 10.7855 6.96437 11.6509 6.92375C11.867 6.914 12.0474 6.90587 12.2294 6.89937L12.387 6.8945C12.9794 6.88006 13.5721 6.87383 14.1647 6.87581L15.8352 6.875ZM15 10.9375C13.9225 10.9375 12.8892 11.3655 12.1274 12.1274C11.3655 12.8892 10.9375 13.9226 10.9375 15C10.9375 16.0774 11.3655 17.1108 12.1274 17.8726C12.8892 18.6345 13.9225 19.0625 15 19.0625C16.0774 19.0625 17.1107 18.6345 17.8726 17.8726C18.6345 17.1108 19.0625 16.0774 19.0625 15C19.0625 13.9226 18.6345 12.8892 17.8726 12.1274C17.1107 11.3655 16.0774 10.9375 15 10.9375ZM15 12.5625C15.3201 12.5624 15.6371 12.6254 15.9328 12.7479C16.2286 12.8703 16.4973 13.0498 16.7237 13.2761C16.9501 13.5024 17.1296 13.7711 17.2522 14.0668C17.3747 14.3625 17.4378 14.6795 17.4379 14.9996C17.4379 15.3197 17.3749 15.6367 17.2525 15.9324C17.1301 16.2282 16.9506 16.4969 16.7242 16.7233C16.4979 16.9497 16.2293 17.1293 15.9336 17.2518C15.6378 17.3743 15.3209 17.4374 15.0008 17.4375C14.3543 17.4375 13.7343 17.1807 13.2772 16.7236C12.8201 16.2665 12.5633 15.6465 12.5633 15C12.5633 14.3535 12.8201 13.7335 13.2772 13.2764C13.7343 12.8193 14.3543 12.5625 15.0008 12.5625M19.2664 9.71875C18.9971 9.71875 18.7387 9.82575 18.5483 10.0162C18.3578 10.2067 18.2508 10.465 18.2508 10.7344C18.2508 11.0037 18.3578 11.2621 18.5483 11.4525C18.7387 11.643 18.9971 11.75 19.2664 11.75C19.5358 11.75 19.7941 11.643 19.9846 11.4525C20.175 11.2621 20.282 11.0037 20.282 10.7344C20.282 10.465 20.175 10.2067 19.9846 10.0162C19.7941 9.82575 19.5358 9.71875 19.2664 9.71875Z" fill="black"/>
</svg>
