<svg width="30" height="30" viewBox="0 0 30 30" fill="none" xmlns="http://www.w3.org/2000/svg">
<circle cx="15" cy="15" r="14.5" stroke="black"/>
<path d="M10.8887 9.31258C10.8885 9.74356 10.7171 10.1568 10.4122 10.4614C10.1073 10.766 9.6939 10.937 9.26292 10.9368C8.83194 10.9366 8.4187 10.7651 8.11411 10.4602C7.80952 10.1553 7.63852 9.74193 7.63873 9.31096C7.63895 8.87998 7.81036 8.46674 8.11526 8.16214C8.42016 7.85755 8.83357 7.68655 9.26455 7.68677C9.69552 7.68698 10.1088 7.85839 10.4134 8.16329C10.718 8.46819 10.8889 8.8816 10.8887 9.31258ZM10.9375 12.1401H7.68748V22.3126H10.9375V12.1401ZM16.0725 12.1401H12.8387V22.3126H16.04V16.9745C16.04 14.0007 19.9156 13.7245 19.9156 16.9745V22.3126H23.125V15.8695C23.125 10.8563 17.3887 11.0432 16.04 13.5051L16.0725 12.1401Z" fill="black"/>
</svg>
