<svg width="30" height="30" viewBox="0 0 30 30" fill="none" xmlns="http://www.w3.org/2000/svg">
<circle cx="15" cy="15" r="14.5" stroke="black"/>
<path d="M15.1983 8.5C15.6321 8.50244 16.7176 8.513 17.8714 8.55931L18.2809 8.57719C19.4419 8.63162 20.6022 8.72587 21.1783 8.88594C21.9461 9.10206 22.5489 9.73094 22.7529 10.5288C23.0779 11.7963 23.1185 14.2679 23.1234 14.8667L23.1242 14.9902V15.1316C23.1185 15.7304 23.0779 18.2029 22.7529 19.4696C22.5465 20.2699 21.9428 20.8996 21.1783 21.1124C20.6022 21.2725 19.4419 21.3667 18.2809 21.4212L17.8714 21.4399C16.7176 21.4854 15.6321 21.4967 15.1983 21.4984L15.0073 21.4992H14.8001C13.882 21.4935 10.0421 21.4521 8.82013 21.1124C8.05313 20.8963 7.44944 20.2674 7.2455 19.4696C6.9205 18.2021 6.87988 15.7304 6.875 15.1316V14.8667C6.87988 14.2679 6.9205 11.7955 7.2455 10.5288C7.45188 9.7285 8.05556 9.09881 8.82094 8.88675C10.0421 8.54631 13.8828 8.50487 14.8009 8.5H15.1983ZM13.3742 12.1562V17.8437L18.2492 15L13.3742 12.1562Z" fill="black"/>
</svg>
