<svg width="63" height="46" viewBox="0 0 63 46" fill="none" xmlns="http://www.w3.org/2000/svg">
<g clip-path="url(#clip0_3_234)">
<path d="M13 4.8V12.62C13 14.4867 12.5 15.8867 11.5 16.82C10.5133 17.74 9.04667 18.2 7.1 18.2C5.16667 18.2 3.7 17.74 2.7 16.82C1.7 15.8867 1.2 14.4867 1.2 12.62V4.8H4.66V12.68C4.66 13.6267 4.86 14.3333 5.26 14.8C5.67333 15.2667 6.28667 15.5 7.1 15.5C7.92667 15.5 8.54 15.2667 8.94 14.8C9.35333 14.3333 9.56 13.6267 9.56 12.68V4.8H13ZM16.9802 22.2V8H20.0402L20.2202 11.62L19.8202 11.2C19.9135 10.5333 20.1202 9.94667 20.4402 9.44C20.7602 8.93333 21.1735 8.53333 21.6802 8.24C22.1868 7.94667 22.7668 7.8 23.4202 7.8C24.2468 7.8 24.9668 8.00667 25.5802 8.42C26.1935 8.82 26.6668 9.40667 27.0002 10.18C27.3468 10.94 27.5202 11.8667 27.5202 12.96C27.5202 14.0533 27.3468 14.9933 27.0002 15.78C26.6535 16.5667 26.1668 17.1667 25.5402 17.58C24.9268 17.9933 24.2068 18.2 23.3802 18.2C22.4735 18.2 21.7402 17.9333 21.1802 17.4C20.6202 16.8533 20.2468 16.1667 20.0602 15.34L20.3802 14.86V22.2H16.9802ZM22.2202 15.7C22.8068 15.7 23.2668 15.4867 23.6002 15.06C23.9335 14.62 24.1002 13.9333 24.1002 13C24.1002 12.0667 23.9335 11.3867 23.6002 10.96C23.2802 10.52 22.8268 10.3 22.2402 10.3C21.8668 10.3 21.5402 10.4067 21.2602 10.62C20.9802 10.82 20.7602 11.12 20.6002 11.52C20.4535 11.92 20.3802 12.4133 20.3802 13C20.3802 13.56 20.4468 14.0467 20.5802 14.46C20.7268 14.86 20.9402 15.1667 21.2202 15.38C21.5002 15.5933 21.8335 15.7 22.2202 15.7ZM6.62 27.6C7.84667 27.6 8.92667 27.7933 9.86 28.18C10.8067 28.5533 11.6267 29.1067 12.32 29.84L10.66 32.06C10.0867 31.46 9.46667 31.0133 8.8 30.72C8.14667 30.4133 7.4 30.26 6.56 30.26C6.06667 30.26 5.66667 30.3133 5.36 30.42C5.05333 30.5267 4.83333 30.6733 4.7 30.86C4.56667 31.0467 4.5 31.26 4.5 31.5C4.5 31.78 4.62667 32.02 4.88 32.22C5.14667 32.4067 5.57333 32.5667 6.16 32.7L8.38 33.2C9.7 33.5067 10.6667 33.9533 11.28 34.54C11.8933 35.1267 12.2 35.9067 12.2 36.88C12.2 37.8133 11.96 38.6067 11.48 39.26C11 39.9 10.34 40.3867 9.5 40.72C8.66 41.04 7.7 41.2 6.62 41.2C5.74 41.2 4.9 41.1067 4.1 40.92C3.3 40.72 2.58 40.44 1.94 40.08C1.3 39.72 0.76 39.3067 0.32 38.84L1.98 36.54C2.31333 36.9267 2.72 37.2733 3.2 37.58C3.69333 37.8733 4.22667 38.1067 4.8 38.28C5.38667 38.4533 5.98 38.54 6.58 38.54C7.04667 38.54 7.43333 38.4933 7.74 38.4C8.06 38.3067 8.29333 38.1667 8.44 37.98C8.58667 37.7933 8.66 37.5733 8.66 37.32C8.66 37.04 8.56 36.8067 8.36 36.62C8.16 36.42 7.78 36.2533 7.22 36.12L4.78 35.58C4.03333 35.4067 3.36667 35.18 2.78 34.9C2.20667 34.6067 1.75333 34.22 1.42 33.74C1.08667 33.2467 0.92 32.6333 0.92 31.9C0.92 31.0733 1.14667 30.34 1.6 29.7C2.05333 29.0467 2.70667 28.5333 3.56 28.16C4.41333 27.7867 5.43333 27.6 6.62 27.6ZM26.6906 31L21.8906 36.12L21.2506 36.3L18.3906 39.5L18.3706 36.02L22.9106 31H26.6906ZM19.1106 26.76V41H15.7106V26.76H19.1106ZM22.4106 34L26.9106 41H23.1506L20.1906 36L22.4106 34ZM31.452 29.84C30.7587 29.84 30.252 29.7133 29.932 29.46C29.6254 29.1933 29.472 28.78 29.472 28.22C29.472 27.6467 29.6254 27.2333 29.932 26.98C30.252 26.7133 30.7587 26.58 31.452 26.58C32.132 26.58 32.632 26.7133 32.952 26.98C33.272 27.2333 33.432 27.6467 33.432 28.22C33.432 28.78 33.272 29.1933 32.952 29.46C32.632 29.7133 32.132 29.84 31.452 29.84ZM33.152 31V41H29.752V31H33.152ZM40.5323 26.76V37.6C40.5323 38.04 40.6057 38.3533 40.7523 38.54C40.899 38.7267 41.1457 38.82 41.4923 38.82C41.6923 38.82 41.859 38.8067 41.9923 38.78C42.1257 38.7533 42.2857 38.7133 42.4723 38.66L42.2523 40.7C42.0123 40.8467 41.699 40.9667 41.3123 41.06C40.9257 41.1533 40.5457 41.2 40.1723 41.2C39.1057 41.2 38.3323 40.9533 37.8523 40.46C37.3723 39.9667 37.1323 39.16 37.1323 38.04V26.76H40.5323ZM48.6753 26.76V37.6C48.6753 38.04 48.7486 38.3533 48.8953 38.54C49.042 38.7267 49.2886 38.82 49.6353 38.82C49.8353 38.82 50.002 38.8067 50.1353 38.78C50.2686 38.7533 50.4286 38.7133 50.6153 38.66L50.3953 40.7C50.1553 40.8467 49.842 40.9667 49.4553 41.06C49.0686 41.1533 48.6886 41.2 48.3153 41.2C47.2486 41.2 46.4753 40.9533 45.9953 40.46C45.5153 39.9667 45.2753 39.16 45.2753 38.04V26.76H48.6753ZM57.6583 41.2C56.6583 41.2 55.7249 41.04 54.8583 40.72C54.0049 40.3867 53.2983 39.9133 52.7383 39.3L54.3383 37.42C54.6716 37.8467 55.1116 38.2067 55.6583 38.5C56.2183 38.78 56.8383 38.92 57.5183 38.92C57.9316 38.92 58.2716 38.86 58.5383 38.74C58.8049 38.62 58.9383 38.4333 58.9383 38.18C58.9383 37.9933 58.8716 37.8467 58.7383 37.74C58.6049 37.62 58.3383 37.52 57.9383 37.44L56.5383 37.16C55.2849 36.9067 54.3916 36.5333 53.8583 36.04C53.3383 35.5333 53.0783 34.8733 53.0783 34.06C53.0783 33.5133 53.2449 32.9933 53.5783 32.5C53.9116 31.9933 54.4249 31.5867 55.1183 31.28C55.8116 30.96 56.6983 30.8 57.7783 30.8C58.7916 30.8 59.6849 30.9467 60.4583 31.24C61.2316 31.5333 61.8449 31.96 62.2983 32.52L60.6783 34.36C60.3583 33.96 59.9449 33.6467 59.4383 33.42C58.9316 33.1933 58.4249 33.08 57.9183 33.08C57.5983 33.08 57.3249 33.1133 57.0983 33.18C56.8849 33.2333 56.7249 33.3133 56.6183 33.42C56.5116 33.5267 56.4583 33.66 56.4583 33.82C56.4583 33.9933 56.5383 34.1467 56.6983 34.28C56.8716 34.4 57.1849 34.5067 57.6383 34.6L59.4583 34.96C60.4849 35.1467 61.2249 35.4867 61.6783 35.98C62.1316 36.4733 62.3583 37.0667 62.3583 37.76C62.3583 38.4133 62.1849 39 61.8383 39.52C61.4916 40.04 60.9716 40.4533 60.2783 40.76C59.5849 41.0533 58.7116 41.2 57.6583 41.2Z" fill="#002333"/>
<circle cx="42.5" cy="10.5" r="10.5" fill="#002333"/>
<circle cx="46.5" cy="6.5" r="2.5" fill="#00FF84"/>
</g>
<defs>
<clipPath id="clip0_3_234">
<rect width="63" height="46" fill="white"/>
</clipPath>
</defs>
</svg>
