<svg width="30" height="30" viewBox="0 0 30 30" fill="none" xmlns="http://www.w3.org/2000/svg">
<path d="M23.4988 10.125C22.8731 10.4094 22.1988 10.5963 21.5 10.6856C22.215 10.255 22.7675 9.5725 23.0275 8.75187C22.3531 9.15812 21.6056 9.4425 20.8175 9.605C20.1756 8.90625 19.2738 8.5 18.25 8.5C16.3406 8.5 14.7806 10.06 14.7806 11.9856C14.7806 12.2619 14.8131 12.53 14.87 12.7819C11.9775 12.6356 9.40188 11.2462 7.6875 9.14187C7.38688 9.65375 7.21625 10.255 7.21625 10.8888C7.21625 12.0994 7.82563 13.1719 8.76813 13.7812C8.19125 13.7812 7.655 13.6188 7.18375 13.375V13.3994C7.18375 15.0894 8.38625 16.5031 9.97875 16.82C9.46747 16.9599 8.9307 16.9794 8.41063 16.8769C8.63131 17.5695 9.0635 18.1756 9.64645 18.6099C10.2294 19.0442 10.9338 19.2849 11.6606 19.2981C10.4286 20.2735 8.90137 20.8007 7.33 20.7931C7.05375 20.7931 6.7775 20.7769 6.50125 20.7444C8.045 21.7356 9.88125 22.3125 11.8475 22.3125C18.25 22.3125 21.7681 16.9988 21.7681 12.3919C21.7681 12.2375 21.7681 12.0912 21.76 11.9369C22.4425 11.4494 23.0275 10.8319 23.4988 10.125Z" fill="black"/>
<circle cx="15" cy="15" r="14.5" stroke="black"/>
</svg>
